<svg height="499pt" viewBox="0 -17 499 498" width="499pt" xmlns="http://www.w3.org/2000/svg"><path d="m122.109375 457.597656h-75.945313v-221.4375c0-11.046875 8.957032-20 20-20h35.945313c11.046875 0 20 8.953125 20 20zm0 0" fill="#ff4a73"/><path d="m232.351562 457.597656h-75.945312v-285.9375c0-11.046875 8.957031-20 20-20h35.945312c11.046876 0 20 8.953125 20 20zm0 0" fill="#44c7b6"/><path d="m342.59375 457.597656h-75.945312v-220.664062c0-11.046875 8.953124-20 20-20h35.945312c11.042969 0 20 8.953125 20 20zm0 0" fill="#f9d335"/><path d="m452.835938 457.597656h-75.945313v-280.664062c0-11.046875 8.953125-20 20-20h35.945313c11.042968 0 20 8.953125 20 20zm0 0" fill="#3193f3"/><path d="m96.160156 216.167969c-11.039062 0-20 8.941406-20 20v221.433593h-30v-221.433593c0-11.058594 8.960938-20 20-20zm0 0" fill="#f973a3"/><path d="m206.398438 151.667969c-11.039063 0-20 8.941406-20 20v285.933593h-30v-285.933593c0-11.058594 8.960937-20 20-20zm0 0" fill="#4bdbc3"/><path d="m316.640625 216.941406c-11.039063 0-20 8.9375-20 20v220.65625h-30v-220.65625c0-11.0625 8.960937-20 20-20zm0 0" fill="#f9e27d"/><path d="m426.878906 156.941406c-11.039062 0-20 8.9375-20 20v280.65625h-30v-280.65625c0-11.0625 8.960938-20 20-20zm0 0" fill="#35b1fc"/><g fill="#5f266d"><path d="m491 448.808594h-30.164062v-272.65625c0-15.441406-12.5625-28-28-28h-35.945313c-15.441406 0-28 12.558594-28 28v272.65625h-18.296875v-212.65625c0-15.441406-12.558594-28-28-28h-35.945312c-15.4375 0-28 12.558594-28 28v212.65625h-18.292969v-277.929688c0-15.4375-12.5625-28-28-28h-35.949219c-15.4375 0-28 12.5625-28 28v277.929688h-18.292969v-212.65625c0-15.441406-12.5625-28-28-28h-35.949219c-15.4375 0-28 12.558594-28 28v212.65625h-30.164062c-4.417969 0-8 3.582031-8 8 0 4.417968 3.582031 8 8 8h483c4.417969 0 8-3.582032 8-8 0-4.417969-3.582031-8-8-8zm-376.890625 0h-59.945313v-212.65625c0-6.617188 5.382813-12 12-12h35.945313c6.617187 0 12 5.382812 12 12zm110.242187 0h-59.945312v-277.929688c0-6.617187 5.382812-12 12-12h35.945312c6.617188 0 12 5.382813 12 12zm110.242188 0h-59.945312v-212.65625c0-6.617188 5.382812-12 12-12h35.945312c6.617188 0 12 5.382812 12 12zm110.242188 0h-59.945313v-272.65625c0-6.617188 5.382813-12 12-12h35.945313c6.617187 0 12 5.382812 12 12zm0 0"/><path d="m87.589844 191.050781 107.691406-88.828125 101.167969 82.359375c3.199219 2.609375 7.859375 2.347657 10.75-.589843l151.5625-154.035157-5.511719 63.769531c-.910156 10.535157 15.019531 12.042969 15.941406 1.378907l7.425782-85.914063c.421874-4.886718-3.738282-9.085937-8.660157-8.660156l-85.914062 7.421875c-10.511719.910156-9.191407 16.828125 1.375 15.941406l64.320312-5.558593-146.839843 149.238281-100.597657-81.898438c-2.957031-2.40625-7.199219-2.394531-10.144531.03125l-112.75 93c-3.40625 2.8125-3.890625 7.855469-1.082031 11.261719 2.816406 3.410156 7.859375 3.890625 11.265625 1.082031zm0 0"/></g></svg>