<?xml version="1.0" encoding="iso-8859-1"?>
<!-- Generator: Adobe Illustrator 19.0.0, SVG Export Plug-In . SVG Version: 6.00 Build 0)  -->
<svg version="1.1" id="Layer_1" xmlns="http://www.w3.org/2000/svg" xmlns:xlink="http://www.w3.org/1999/xlink" x="0px" y="0px"
	 viewBox="0 0 512 512" style="enable-background:new 0 0 512 512;" xml:space="preserve">
<path style="fill:#0F7BE4;" d="M358.4,109.909V435.2c0,28.245-70.059,59.733-170.667,59.733S17.067,463.445,17.067,435.2V109.909
	C46.251,136.192,110.08,153.6,187.733,153.6S329.216,136.192,358.4,109.909z"/>
<path d="M503.467,0h-102.4c-4.693,0-8.533,3.84-8.533,8.533v494.933c0,4.693,3.84,8.533,8.533,8.533h102.4
	c4.693,0,8.533-3.84,8.533-8.533V8.533C512,3.84,508.16,0,503.467,0z M494.933,494.933H409.6v-25.6h17.067
	c4.693,0,8.533-3.84,8.533-8.533s-3.84-8.533-8.533-8.533H409.6v-34.133h34.133c4.693,0,8.533-3.84,8.533-8.533
	c0-4.693-3.84-8.533-8.533-8.533H409.6v-34.133h17.067c4.693,0,8.533-3.84,8.533-8.533s-3.84-8.533-8.533-8.533H409.6v-34.133
	h34.133c4.693,0,8.533-3.84,8.533-8.533s-3.84-8.533-8.533-8.533H409.6v-34.133h17.067c4.693,0,8.533-3.84,8.533-8.533
	c0-4.693-3.84-8.533-8.533-8.533H409.6v-34.133h34.133c4.693,0,8.533-3.84,8.533-8.533c0-4.693-3.84-8.533-8.533-8.533H409.6
	v-34.133h17.067c4.693,0,8.533-3.84,8.533-8.533s-3.84-8.533-8.533-8.533H409.6v-34.133h34.133c4.693,0,8.533-3.84,8.533-8.533
	c0-4.693-3.84-8.533-8.533-8.533H409.6V59.733h17.067c4.693,0,8.533-3.84,8.533-8.533s-3.84-8.533-8.533-8.533H409.6v-25.6h85.333
	V494.933z"/>
<polygon style="fill:#F6981E;" points="494.933,17.067 494.933,494.933 469.333,494.933 469.333,34.133 409.6,34.133 409.6,17.067 
	"/>
<path style="fill:#FDB50D;" d="M469.333,34.133v460.8H409.6v-25.6h17.067c4.693,0,8.533-3.84,8.533-8.533s-3.84-8.533-8.533-8.533
	H409.6v-34.133h34.133c4.693,0,8.533-3.84,8.533-8.533c0-4.693-3.84-8.533-8.533-8.533H409.6v-34.133h17.067
	c4.693,0,8.533-3.84,8.533-8.533s-3.84-8.533-8.533-8.533H409.6v-34.133h34.133c4.693,0,8.533-3.84,8.533-8.533
	s-3.84-8.533-8.533-8.533H409.6v-34.133h17.067c4.693,0,8.533-3.84,8.533-8.533c0-4.693-3.84-8.533-8.533-8.533H409.6v-34.133
	h34.133c4.693,0,8.533-3.84,8.533-8.533c0-4.693-3.84-8.533-8.533-8.533H409.6v-34.133h17.067c4.693,0,8.533-3.84,8.533-8.533
	s-3.84-8.533-8.533-8.533H409.6v-34.133h34.133c4.693,0,8.533-3.84,8.533-8.533c0-4.693-3.84-8.533-8.533-8.533H409.6V59.733h17.067
	c4.693,0,8.533-3.84,8.533-8.533s-3.84-8.533-8.533-8.533H409.6v-8.533H469.333z"/>
<path d="M187.733,0C80.725,0,0,33.024,0,76.8v358.4C0,478.976,80.725,512,187.733,512s187.733-33.024,187.733-76.8V76.8
	C375.467,33.024,294.741,0,187.733,0z M358.4,435.2c0,28.245-70.059,59.733-170.667,59.733S17.067,463.445,17.067,435.2V109.909
	C46.251,136.192,110.08,153.6,187.733,153.6s141.483-17.408,170.667-43.691V435.2z M187.733,136.533
	c-100.608,0-170.667-31.488-170.667-59.733s70.059-59.733,170.667-59.733S358.4,48.555,358.4,76.8S288.341,136.533,187.733,136.533z
	"/>
<path style="fill:#0F7BE4;" d="M324.267,76.8c0-26.615-62.234-56.09-153.6-59.401c5.589-0.205,11.264-0.333,17.067-0.333
	C87.125,17.067,17.067,48.555,17.067,76.8s70.059,59.733,170.667,59.733c-5.803,0-11.477-0.128-17.067-0.333
	C262.033,132.89,324.267,103.415,324.267,76.8z"/>
<g>
	<path style="fill:#215EFF;" d="M187.733,17.067c-5.803,0-11.477,0.128-17.067,0.333c91.366,3.311,153.6,32.785,153.6,59.401
		s-62.234,56.09-153.6,59.401c5.589,0.205,11.264,0.333,17.067,0.333c100.608,0,170.667-31.488,170.667-59.733
		S288.341,17.067,187.733,17.067z"/>
	<path style="fill:#215EFF;" d="M298.667,139.52v340.318c37.453-11.759,59.733-28.715,59.733-44.638V109.909
		C345.071,121.907,324.463,132.028,298.667,139.52z"/>
</g>
<g>
</g>
<g>
</g>
<g>
</g>
<g>
</g>
<g>
</g>
<g>
</g>
<g>
</g>
<g>
</g>
<g>
</g>
<g>
</g>
<g>
</g>
<g>
</g>
<g>
</g>
<g>
</g>
<g>
</g>
</svg>
