<svg id="Capa_1" enable-background="new 0 0 512 512" height="512" viewBox="0 0 512 512" width="512" xmlns="http://www.w3.org/2000/svg"><g><g><path d="m466 392h-60c-8.284 0-15-6.716-15-15v-362c0-8.284 6.716-15 15-15h60c8.284 0 15 6.716 15 15v362c0 8.284-6.716 15-15 15z" fill="#d3d3d8"/></g><g><path d="m346 62h-60c-8.28 0-15 6.72-15 15v300c0 8.28 6.72 15 15 15h60c8.28 0 15-6.72 15-15v-300c0-8.28-6.72-15-15-15z" fill="#ff641a"/></g><path d="m361 77v300c0 8.28-6.72 15-15 15h-30v-330h30c8.28 0 15 6.72 15 15z" fill="#dd3400"/><g><path d="m226 392h-60c-8.284 0-15-6.716-15-15v-240c0-8.284 6.716-15 15-15h60c8.284 0 15 6.716 15 15v240c0 8.284-6.716 15-15 15z" fill="#ff641a"/></g><g><path d="m106 392h-60c-8.284 0-15-6.716-15-15v-180c0-8.284 6.716-15 15-15h60c8.284 0 15 6.716 15 15v180c0 8.284-6.716 15-15 15z" fill="#ff641a"/></g><g><path d="m286.002 482h-271.002c-8.284 0-15-6.716-15-15s6.716-15 15-15h271.002c8.284 0 15 6.716 15 15s-6.716 15-15 15z" fill="#575f64"/></g><g><path d="m497 482h-150.999c-8.284 0-15-6.716-15-15s6.716-15 15-15h150.999c8.284 0 15 6.716 15 15s-6.716 15-15 15z" fill="#32393f"/></g><g><path d="m316 422c-24.81 0-45 20.19-45 45s20.19 45 45 45 45-20.19 45-45-20.19-45-45-45z" fill="#ececf1"/></g><path d="m361 467c0 24.81-20.19 45-45 45v-90c24.81 0 45 20.19 45 45z" fill="#d3d3d8"/></g></svg>