<svg height="464pt" viewBox="0 0 463 464" width="464pt" xmlns="http://www.w3.org/2000/svg"><path d="m8.101562 376h16v16h-16zm0 0"/><path d="m40.101562 408h16v16h-16zm0 0"/><path d="m72.101562 448h16v16h-16zm0 0"/><path d="m440.101562 376h16v16h-16zm0 0"/><path d="m408.101562 408h16v16h-16zm0 0"/><path d="m376.101562 448h16v16h-16zm0 0"/><path d="m192.101562 0h16v16h-16zm0 0"/><path d="m240.101562 352h-24v32h24c8.824219 0 16-7.175781 16-16s-7.175781-16-16-16zm0 0"/><path d="m216.101562 304v32h24c8.824219 0 16-7.175781 16-16s-7.175781-16-16-16zm0 0"/><path d="m221.347656 216.542969c1.792969-8.023438 2.753906-16.253907 2.753906-24.542969h-59.058593l-21.503907 43.007812-23.183593-54.105468-34.015625 85.042968-24.761719-99.023437-16.535156 33.078125h-44.535157c.824219 11.601562 3.496094 22.679688 7.59375 33.039062v126.960938h16v-99.113281c4.757813 6.074219 10.109376 11.625 16 16.601562v114.511719h16v-103.246094c5.09375 2.964844 10.429688 5.542969 16 7.6875v135.558594h16v-130.703125c7.269532 1.597656 14.789063 2.535156 22.519532 2.632813 15.78125-47.722657 58.886718-83.042969 110.726562-87.386719zm0 0"/><path d="m66.613281 121.078125 23.238281 92.976563 29.984376-74.957032 24.816406 57.894532 10.496094-20.992188h67.664062c-2.144531-14.902344-7.3125-28.808594-14.71875-41.222656v-102.777344h-16v81.839844c-4.890625-5.015625-10.257812-9.535156-16-13.566406v-52.273438h-16v42.886719c-14.554688-6.949219-30.816406-10.886719-48-10.886719-59.058594 0-107.464844 45.976562-111.59375 104h34.648438zm0 0"/><path d="m232.101562 232c-61.761718 0-112 50.238281-112 112s50.238282 112 112 112c61.757813 0 112-50.238281 112-112s-50.242187-112-112-112zm0 208c-52.9375 0-96-43.0625-96-96 0-22.40625 7.894532-44.214844 22.246094-61.425781l12.28125 10.25c-11.945312 14.335937-18.527344 32.503906-18.527344 51.175781 0 44.113281 35.886719 80 80 80 18.671876 0 36.839844-6.585938 51.167969-18.527344l10.246094 12.28125c-17.199219 14.351563-39.007813 22.246094-61.414063 22.246094zm40-120c0 9.542969-4.203124 18.136719-10.859374 24 6.65625 5.863281 10.859374 14.457031 10.859374 24 0 17.648438-14.355468 32-32 32v16h-16v-16h-24v-112h24v-16h16v16c17.644532 0 32 14.351562 32 32zm33.75 85.425781-12.28125-10.25c11.945313-14.328125 18.53125-32.503906 18.53125-51.175781 0-44.113281-35.890624-80-80-80-18.671874 0-36.839843 6.585938-51.167968 18.527344l-10.25-12.28125c17.199218-14.351563 39.015625-22.246094 61.425781-22.246094 52.933594 0 96 43.0625 96 96-.007813 22.40625-7.90625 44.222656-22.257813 61.425781zm0 0"/><path d="m344.101562 196.902344v-50.476563l-27.539062 41.300781zm0 0"/><path d="m344.101562 237.574219v-23.804688l-20.410156-6.808593zm0 0"/><path d="m360.101562 146.425781v50.476563l27.535157-9.175782zm0 0"/><path d="m464.101562 192c0-61.761719-50.242187-112-112-112-17.195312 0-33.425781 4.007812-48 10.960938v-42.960938h-16v52.214844c-5.753906 4.023437-11.113281 8.546875-16 13.546875v-81.761719h-16v102.609375c-10.089843 16.804687-16 36.398437-16 57.390625 0 8.304688.957032 16.527344 2.75 24.542969 51.839844 4.34375 94.945313 39.65625 110.726563 87.378906 7.722656-.105469 15.25-1 22.523437-2.59375v130.664063h16v-135.578126c5.550782-2.132812 10.910157-4.644531 16-7.597656v103.183594h16v-114.335938c5.894532-4.960937 11.230469-10.558593 16-16.617187v98.953125h16v-126.648438c5.109376-12.808593 8-26.734374 8-41.351562zm-112 86.425781-57.617187-86.425781 57.617187-86.414062 57.613282 86.421874zm0 0"/><path d="m360.101562 237.574219 20.40625-30.613281-20.40625 6.808593zm0 0"/><path d="m256.101562 0h16v16h-16zm0 0"/></svg>